<?xml version="1.0" standalone="no"?><!DOCTYPE svg PUBLIC "-//W3C//DTD SVG 1.1//EN" "http://www.w3.org/Graphics/SVG/1.1/DTD/svg11.dtd"><svg t="1606658548914" class="icon" viewBox="0 0 1024 1024" version="1.1" xmlns="http://www.w3.org/2000/svg" p-id="4118" xmlns:xlink="http://www.w3.org/1999/xlink" width="32" height="32"><defs><style type="text/css"></style></defs><path d="M363.44340711 531.29306421H245.75571618c-65.59641755 0-119.61699658 54.02057902-119.61699657 119.61699658v119.61699734C126.13871961 834.19416927 180.15929863 888.21474829 245.75571618 888.21474829h119.61699735c65.59641755 0 119.61699658-54.02057902 119.61699658-119.61699658v-119.61699734c-1.92930643-63.66711113-55.94988545-117.68769092-121.546303-117.68769016zM778.24428382 116.4921875h-119.61699735c-65.59641755 0-119.61699658 54.02057902-119.61699658 119.61699658v119.61699735c0 65.59641755 54.02057902 119.61699658 119.61699658 119.61699656h119.61699735c65.59641755 0 119.61699658-54.02057902 119.61699657-119.61699656V236.10918408C897.86128039 170.51276652 843.84070137 116.4921875 778.24428382 116.4921875z m0 414.80087671h-119.61699735c-65.59641755 0-119.61699658 54.02057902-119.61699658 119.61699658v119.61699734c0 65.59641755 54.02057902 119.61699658 119.61699658 119.61699657h119.61699735c65.59641755 0 119.61699658-54.02057902 119.61699657-119.61699657v-119.61699734c0-65.59641755-54.02057902-119.61699658-119.61699657-119.61699657zM363.44340711 116.4921875H245.75571618C180.15929863 116.4921875 126.13871961 170.51276652 126.13871961 236.10918408v119.61699734c0 65.59641755 54.02057902 119.61699658 119.61699657 119.61699657h119.61699734c65.59641755 0 119.61699658-54.02057902 119.61699659-119.61699657V236.10918408C483.06040368 170.51276652 429.03982466 116.4921875 363.44340711 116.4921875z" fill="#2c2c2c" p-id="4119"></path></svg>