<?xml version="1.0" standalone="no"?><!DOCTYPE svg PUBLIC "-//W3C//DTD SVG 1.1//EN" "http://www.w3.org/Graphics/SVG/1.1/DTD/svg11.dtd"><svg t="1606658510265" class="icon" viewBox="0 0 1024 1024" version="1.1" xmlns="http://www.w3.org/2000/svg" p-id="3929" xmlns:xlink="http://www.w3.org/1999/xlink" width="32" height="32"><defs><style type="text/css"></style></defs><path d="M567.519478 660.594293l-0.118704 299.172777 156.393933 0c67.228147 0 121.92284-59.866483 121.92284-133.425825L845.717548 596.943624l23.700795 0c34.520211 0 61.669548-16.705474 74.490551-45.835931 10.414187-23.681352 8.709359-62.323441-27.287483-99.757005L601.89131 123.977639c-23.839965-24.750707-55.764048-38.385239-89.898473-38.385239-34.124192 0-66.049299 13.633508-89.88824 38.404682L107.375519 451.349665c-36.007075 37.414121-37.70167 76.096119-27.26804 99.796914 12.850679 29.111015 40.000016 45.796022 74.460876 45.796022l23.700795 0 0 229.398644c0 73.559343 54.694693 133.425825 121.92284 133.425825l156.413376 0-0.148379-299.92593c-0.049119-2.674922-0.099261-5.727445-0.059352-8.362458l0.029676-2.695389 111.14231 0 0.029676 2.695389c0.039909 2.636037-0.010233 5.668093-0.059352 8.322549L567.519478 660.594293zM564.943816 603.918479 459.053114 603.918479c-5.886057 0-23.779589 0-35.907815 12.365632-12.157901 12.405541-11.830443 29.071106-11.523451 45.182039l0.128937 253.436106L300.19199 914.902256c-47.600111 0-77.057003-45.975101-77.057003-88.561012L223.134986 552.077787l-68.565609 0c-16.58677 0-27.832905-6.40078-33.43039-19.043728-0.971118-2.200108-8.679683-22.274306 18.567891-50.611701l314.719868-327.33314c15.288195-15.892969 35.738969-24.632004 57.567113-24.632004 21.838378 0 42.289152 8.739035 57.567113 24.612561l314.719868 327.352583c27.198455 28.278043 19.539009 48.412616 18.578124 50.611701-5.568832 12.642948-16.814967 19.043728-33.440623 19.043728l-68.556399 0 0 274.263457c0 42.585911-29.457916 88.561012-77.067236 88.561012L612.256378 914.902256l0.118704-253.416664c0.306992-16.150842 0.613984-32.816406-11.533684-45.201481C588.723406 603.918479 570.82885 603.918479 564.943816 603.918479z" p-id="3930"></path></svg>